<svg xmlns="http://www.w3.org/2000/svg" viewBox="0 0 1920 1080"><defs><linearGradient id="s" x2="0" y2="1"><stop stop-color="#67b9ee"/><stop offset=".65" stop-color="#c9efff"/><stop offset="1" stop-color="#eaf6df"/></linearGradient><radialGradient id="u"><stop stop-color="#fffbd0"/><stop offset="1" stop-color="#fffbd0" stop-opacity="0"/></radialGradient><linearGradient id="g" x2="0" y2="1"><stop stop-color="#79b95d"/><stop offset="1" stop-color="#315b35"/></linearGradient></defs><rect width="1920" height="1080" fill="url(#s)"/><circle cx="1510" cy="190" r="180" fill="url(#u)"/><g fill="#fff" opacity=".72"><ellipse cx="300" cy="220" rx="120" ry="45"/><ellipse cx="390" cy="205" rx="85" ry="58"/><ellipse cx="470" cy="225" rx="120" ry="42"/><ellipse cx="980" cy="150" rx="110" ry="38"/><ellipse cx="1080" cy="135" rx="75" ry="52"/><ellipse cx="1150" cy="155" rx="110" ry="35"/></g><path d="M0 650L220 470 410 650 650 420 900 650 1160 390 1410 650 1630 450 1920 660V1080H0Z" fill="#6b9b76" opacity=".5"/><path d="M0 720L300 540 540 720 820 500 1100 720 1370 520 1650 720 1920 530V1080H0Z" fill="#4f805e" opacity=".7"/><rect y="690" width="1920" height="390" fill="url(#g)"/><path d="M0 730Q240 680 480 735T960 730T1440 735T1920 720V780Q1680 750 1440 785T960 775T480 785T0 780Z" fill="#93cf68"/><g fill="#355d38"><path d="M170 730v-150h34v150z"/><circle cx="187" cy="550" r="72"/><circle cx="135" cy="585" r="48"/><circle cx="240" cy="585" r="48"/><path d="M1680 730v-170h38v170z"/><circle cx="1699" cy="550" r="76"/><circle cx="1645" cy="590" r="50"/><circle cx="1755" cy="590" r="50"/></g></svg>